<?xml version="1.0" encoding="utf-8"?>
<!-- Svg Vector Icons : http://www.onlinewebfonts.com/icon -->
<!DOCTYPE svg PUBLIC "-//W3C//DTD SVG 1.1//EN" "http://www.w3.org/Graphics/SVG/1.1/DTD/svg11.dtd">
<svg version="1.1" xmlns="http://www.w3.org/2000/svg" xmlns:xlink="http://www.w3.org/1999/xlink" x="0px" y="0px" viewBox="0 0 256 256" enable-background="new 0 0 256 256" xml:space="preserve">
<metadata> Svg Vector Icons : http://www.onlinewebfonts.com/icon </metadata>
<g><g><g><path fill="#000000" d="M76.6,10.6c-14.6,2.7-25.8,15-26.8,29.5c-0.3,4.4,0.3,6,2.6,6.7c3.4,1.2,5.4-0.7,6-5.4c0.9-8.9,5.6-16.1,12.8-19.8c3.6-1.8,5.4-2.3,9.6-2.8c3.1-0.4,3.8-0.6,4.7-1.7c1.9-2.2,1.3-5.2-1.3-6.6C82.7,9.8,81,9.8,76.6,10.6z"/><path fill="#000000" d="M77,25.1c-3.5,1.1-5.7,2.5-8.3,5.4c-3,3.1-4.4,6.5-4.9,10.8c-0.2,2.5-0.2,2.8,1.1,4.2c1.1,1.3,1.8,1.6,3.1,1.6c2.5,0,3.9-1.6,4.5-5c0.2-1.5,0.7-3.3,1.1-4c1.5-2.9,5.6-5.2,9.1-5.2c1,0,1.8-0.4,2.6-1.5c1.5-1.8,1.5-3.7,0-5.5c-1.1-1.3-1.5-1.5-3.8-1.4C80.1,24.5,78.1,24.8,77,25.1z"/><path fill="#000000" d="M91.4,35.5c-7.4,2-13.9,8.2-16.4,15.6c-1,2.9-1,3.5-1,65.8c0,56.2,0.1,63.2,0.7,65.5c2,6.7,7.3,12.6,14.3,15.5c2.5,1,3,1.1,23.6,1.3l21.1,0.2l0.9,1.9c1.8,3.8,6,10.6,8.7,14c2.6,3.2,2.8,3.7,2.8,5.9c0,2.1-0.2,2.5-1.6,3.9c-2,2-2.3,3.8-2.1,11.3c0.1,6.1,0.7,7.4,3.7,8.9c1.5,0.7,3.6,0.8,24.1,0.8c16.2,0,23-0.1,24.1-0.6c0.9-0.3,2.1-1.3,2.7-2.2c1-1.5,1.1-2.1,1.1-8.6c0-7.4-0.2-8.3-2.2-10.1l-1.2-1l0.6-5.8c0.9-8.7,4.1-34.7,5.4-43.7c1.9-12.6,3-18.5,4.4-22.3c1.1-3,1.2-4.3,1.3-8.9c0-4.5-0.1-5.7-1-7.5c-1-2.2-6-7.6-24.9-26.7l-8.6-8.7V77.3c0-21.4,0-23-0.9-25.8c-2.4-7.7-8.9-14-16.9-16.1C150.3,34.4,95.1,34.5,91.4,35.5z M153.7,46.5c2.5,0.7,4.8,2.9,6.1,5.4l1.1,2.3l0,52.7c0,29-0.1,53.2-0.3,53.7c-0.2,0.6-1.1,1.5-1.9,2.1c-2.2,1.4-8.1,1-13-0.7c-5.5-2-16.3-7.5-19.7-10.1c-9.1-7-11.4-8.6-15.8-10.8c-4.4-2.2-5.2-2.4-8.7-2.6c-3.5-0.1-4.1-0.1-5.5,0.9c-4.7,3.2-3.2,12.3,3.1,18.9c1.5,1.5,8.9,8.6,16.4,15.6c8.8,8.2,13.7,13.1,13.7,13.7c0,0.9-0.5,0.9-17.9,0.7l-17.9-0.1l-2.6-1.3c-3-1.5-4.8-3.7-5.6-6.9c-0.4-1.5-0.5-20.3-0.4-64.2L85,53.7l1-1.9c1.3-2.5,3.4-4.4,5.6-5.2C94,45.8,150.9,45.7,153.7,46.5z"/><path fill="#000000" d="M120.7,50.8c-1.2,0.9-1.8,3-1.3,4.3c1.5,4,7,2.9,7-1.4C126.4,51,122.8,49.2,120.7,50.8z"/><path fill="#000000" d="M121.5,82.9c-1.5,0.3-2.1,1.5-2.1,4v2.3l-3,1.5c-5.3,2.5-7.5,6.2-7.2,11.9c0.3,5.1,3.1,7.9,11.2,11.2c5.2,2.2,6.9,3.7,6.9,6c0,2.8-2.4,4.5-6.2,4.5c-2.3,0-6-0.9-8.2-2.1c-0.9-0.5-1.8-0.7-2.2-0.6c-0.6,0.2-2.2,5-2.2,6.6c0,1,3.1,2.4,7.1,3.2l3,0.6l0.1,2.1c0.2,4.3,0.2,4.3,3.7,4.1l3.1-0.1l0.1-2.8c0.2-3.2,0.8-4.1,3.3-4.8c4.4-1.3,8.1-6.5,8.1-11.3c0-5.8-3.6-9.9-11.3-13.1c-7.3-3.1-8.9-5.2-6.1-8c1.3-1.2,1.7-1.4,4.5-1.4c1.8,0,4.2,0.4,5.9,0.9c1.5,0.5,3,0.8,3.2,0.7c0.2-0.1,0.8-1.6,1.3-3.3l0.8-3.1l-1-0.8c-0.6-0.5-2.2-1.1-3.7-1.4c-4.1-0.9-4.3-1.1-4.3-3.7C126.4,82.8,125.1,82,121.5,82.9z"/></g></g></g>
</svg>