<?xml version="1.0" encoding="utf-8"?>
<!-- Generator: Adobe Illustrator 27.5.0, SVG Export Plug-In . SVG Version: 6.00 Build 0)  -->
<svg version="1.1" xmlns="http://www.w3.org/2000/svg" xmlns:xlink="http://www.w3.org/1999/xlink" x="0px" y="0px"
	 viewBox="0 0 500 500" style="enable-background:new 0 0 500 500;" xml:space="preserve">
<g id="Background_complete">
	<g id="freepik--background-complete--inject-2">
		<path style="fill:#F0F0F0;" d="M356,183.29c-14.842,19.934-43.034,24.063-62.968,9.221c-19.935-14.842-24.063-43.034-9.221-62.968
			c14.842-19.934,43.034-24.063,62.968-9.221c0.017,0.013,0.034,0.025,0.051,0.038C366.723,135.215,370.827,163.376,356,183.29z"/>
		<path style="fill:#F5F5F5;" d="M347.41,176.88c-11.321,15.195-32.816,18.337-48.012,7.016
			c-15.195-11.321-18.336-32.816-7.016-48.012c11.321-15.195,32.816-18.336,48.012-7.016c0.005,0.004,0.01,0.008,0.016,0.012
			c15.184,11.299,18.335,32.767,7.036,47.952C347.434,176.848,347.422,176.864,347.41,176.88z"/>
		<path style="fill:#E0E0E0;" d="M348.05,176c-0.17-0.11,0.61-1.41,1.74-3.84c1.592-3.414,2.648-7.054,3.13-10.79
			c0.313-2.562,0.343-5.151,0.09-7.72c-0.293-2.934-0.965-5.818-2-8.58c-1.134-3.047-2.714-5.908-4.69-8.49
			c-1.033-1.372-2.173-2.659-3.41-3.85c-1.279-1.219-2.642-2.345-4.08-3.37c-1.459-0.999-2.986-1.894-4.57-2.68
			c-1.541-0.754-3.14-1.386-4.78-1.89c-1.582-0.497-3.2-0.868-4.84-1.11c-1.571-0.248-3.159-0.375-4.75-0.38
			c-2.948-0.047-5.889,0.289-8.75,1c-2.499,0.645-4.92,1.56-7.22,2.73c-3.344,1.733-6.401,3.973-9.06,6.64c-1.9,1.9-2.84,3.08-3,3
			c-0.16-0.08,0.53-1.47,2.25-3.64c2.481-3.061,5.509-5.635,8.93-7.59c5.13-2.946,10.934-4.516,16.85-4.56
			c3.5-0.038,6.986,0.451,10.34,1.45c1.777,0.527,3.51,1.196,5.18,2c1.713,0.836,3.36,1.799,4.93,2.88
			c1.554,1.107,3.025,2.327,4.4,3.65c1.326,1.291,2.546,2.685,3.65,4.17c1.073,1.429,2.026,2.944,2.85,4.53
			c0.804,1.509,1.493,3.077,2.06,4.69c1.052,2.976,1.694,6.081,1.91,9.23c0.177,2.73,0.036,5.472-0.42,8.17
			c-0.666,3.885-2.042,7.614-4.06,11C349.25,175,348.17,176.1,348.05,176z"/>
		<path style="fill:#E0E0E0;" d="M310.79,175.06l-3.51,4.83l-4.28-3.13l3.41-4.71c-4.08-3.36-7.22-7.67-8.24-11.25l6.19-3.55
			c1.224,3.53,3.347,6.681,6.16,9.14l5.23-7.21c-3.95-4.64-8.15-10.13-3.67-16.3c3.32-4.58,9.5-6.1,16.89-1.93l3.48-4.79l4.32,3.13
			l-3.46,4.71c2.966,2.416,5.317,5.5,6.86,9l-6,3.75c-1.19-2.64-2.889-5.018-5-7l-5.32,7.25c4,4.6,8.09,10,3.67,16.11
			C324.27,177.65,318.16,179.15,310.79,175.06z M320.31,152.83l4.45-6.13c-2.66-1.15-4.48-0.55-5.51,0.88
			C318.22,149.01,318.85,150.85,320.31,152.83z M320.19,168.63c1.1-1.51,0.44-3.24-0.94-5.24l-4.33,6
			C317.43,170.45,319.19,170,320.19,168.63z"/>
		<path style="fill:#F0F0F0;" d="M194.91,249.84c4.176,28.38-15.446,54.772-43.826,58.948c-28.38,4.176-54.772-15.446-58.948-43.826
			c-4.176-28.38,15.446-54.772,43.826-58.948c0.033-0.005,0.065-0.01,0.098-0.014c28.35-4.15,54.697,15.469,58.847,43.819
			C194.908,249.826,194.909,249.833,194.91,249.84z"/>
		<path style="fill:#F5F5F5;" d="M182.68,251.61c3.197,21.624-11.742,41.746-33.366,44.943
			c-21.625,3.197-41.746-11.742-44.943-33.367c-3.197-21.624,11.742-41.746,33.366-44.942c0.031-0.005,0.062-0.009,0.093-0.014
			C159.432,215.067,179.509,230.01,182.68,251.61z"/>
		<path style="fill:#E0E0E0;" d="M182.49,250.39c-0.24,0-0.65-1.65-1.72-4.56c-1.488-4.084-3.599-7.913-6.26-11.35
			c-1.837-2.342-3.923-4.477-6.22-6.37c-2.645-2.141-5.551-3.935-8.65-5.34c-1.671-0.763-3.395-1.401-5.16-1.91
			c-1.833-0.543-3.705-0.941-5.6-1.19c-1.961-0.27-3.941-0.384-5.92-0.34c-2.038,0.046-4.07,0.239-6.08,0.58
			c-2.003,0.375-3.978,0.89-5.91,1.54c-1.874,0.651-3.696,1.443-5.45,2.37c-1.691,0.874-3.313,1.877-4.85,3
			c-1.481,1.083-2.879,2.276-4.18,3.57c-2.428,2.386-4.538,5.075-6.28,8c-1.514,2.56-2.738,5.28-3.65,8.11
			c-1.32,4.142-1.995,8.463-2,12.81c0,3.1,0.2,4.83,0,4.87c-0.2,0.04-0.77-1.63-1.14-4.81c-0.473-4.519-0.103-9.086,1.09-13.47
			c1.773-6.59,5.218-12.611,10-17.48c1.373-1.416,2.854-2.723,4.43-3.91c1.637-1.25,3.369-2.37,5.18-3.35
			c1.879-1.016,3.835-1.882,5.85-2.59c2.081-0.718,4.214-1.276,6.38-1.67c2.168-0.372,4.361-0.583,6.56-0.63
			c2.138-0.022,4.274,0.118,6.39,0.42c2.032,0.299,4.038,0.754,6,1.36c1.886,0.575,3.724,1.294,5.5,2.15
			c3.285,1.584,6.342,3.602,9.09,6c2.377,2.074,4.499,4.424,6.32,7c2.634,3.703,4.556,7.864,5.67,12.27
			C182.64,248.59,182.66,250.36,182.49,250.39z"/>
		<path style="fill:#E0E0E0;" d="M151.33,280l1.09,6.81l-6.07,1l-1.06-6.62c-6.08,0.6-12.16-0.36-15.92-2.44l2.16-7.95
			c3.879,1.867,8.174,2.7,12.47,2.42l-1.63-10.16c-7-0.55-14.9-1.6-16.29-10.29c-1-6.44,2.76-12.72,12.19-15.35l-1.08-6.75l6.08-1
			l1.06,6.62c4.386-0.452,8.817,0.141,12.93,1.73l-1.84,8c-3.126-1.207-6.461-1.779-9.81-1.68l1.66,10.34
			c7,0.5,14.77,1.56,16.14,10.13C164.44,271.13,160.69,277.34,151.33,280z M141,254.13l-1.39-8.63c-3.1,1.24-4.1,3.21-3.78,5.22
			C136.15,252.73,138.14,253.71,141,254.13z M153.8,267.13c-0.35-2.13-2.29-3-5-3.5l1.34,8.39c2.86-1.18,3.93-2.97,3.62-4.91
			L153.8,267.13z"/>
		<path style="fill:#F0F0F0;" d="M300.06,69.44c-2.558,13.939-15.932,23.165-29.871,20.607
			c-13.939-2.558-23.165-15.932-20.606-29.87c2.558-13.939,15.932-23.165,29.87-20.606c0.019,0.003,0.038,0.007,0.057,0.01
			c13.915,2.564,23.118,15.923,20.554,29.838C300.063,69.425,300.061,69.433,300.06,69.44z"/>
		<path style="fill:#F5F5F5;" d="M294.06,68.32c-1.948,10.62-12.136,17.65-22.756,15.703c-10.62-1.948-17.65-12.136-15.702-22.756
			c1.948-10.62,12.136-17.65,22.756-15.703c0.011,0.002,0.022,0.004,0.033,0.006C288.997,47.528,296.011,57.711,294.06,68.32z"/>
		<path style="fill:#E0E0E0;" d="M294.16,67.72c-0.103-0.799-0.126-1.606-0.07-2.41c-0.039-2.147-0.406-4.275-1.09-6.31
			c-0.483-1.398-1.116-2.739-1.89-4c-0.897-1.422-1.972-2.722-3.2-3.87c-0.657-0.628-1.362-1.203-2.11-1.72
			c-0.784-0.536-1.61-1.007-2.47-1.41c-0.873-0.441-1.779-0.812-2.71-1.11c-0.962-0.303-1.944-0.533-2.94-0.69
			c-0.993-0.147-1.996-0.22-3-0.22c-0.978,0.004-1.954,0.084-2.92,0.24c-0.933,0.142-1.852,0.36-2.75,0.65
			c-0.867,0.27-1.713,0.604-2.53,1c-2.858,1.376-5.332,3.437-7.2,6c-1.291,1.725-2.303,3.641-3,5.68
			c-0.189,0.782-0.458,1.542-0.8,2.27c-0.1-0.818-0.018-1.648,0.24-2.43c0.49-2.192,1.389-4.272,2.65-6.13
			c0.855-1.292,1.863-2.477,3-3.53c1.328-1.212,2.815-2.238,4.42-3.05c0.866-0.445,1.766-0.823,2.69-1.13
			c0.98-0.322,1.983-0.57,3-0.74c1.04-0.18,2.094-0.273,3.15-0.28c2.18-0.022,4.35,0.316,6.42,1c1.014,0.308,2.001,0.7,2.95,1.17
			c1.772,0.912,3.4,2.082,4.83,3.47c1.286,1.259,2.396,2.685,3.3,4.24c0.793,1.346,1.421,2.783,1.87,4.28
			c0.643,2.151,0.88,4.402,0.7,6.64C294.694,66.156,294.51,66.971,294.16,67.72z"/>
		<path style="fill:#E0E0E0;" d="M274.88,76.62L274.3,80l-3-0.51l0.56-3.27c-2.65-0.539-5.096-1.81-7.06-3.67l2.27-3.38
			c1.517,1.497,3.399,2.573,5.46,3.12l0.85-5c-3.19-1.38-6.72-3.12-6-7.41c0.54-3.18,3.31-5.51,8.14-5.24l0.57-3.33l3,0.51
			l-0.56,3.27c2.124,0.484,4.102,1.468,5.77,2.87l-2.13,3.43c-1.255-1.076-2.714-1.889-4.29-2.39L277,64.12
			c3.2,1.35,6.66,3.08,5.94,7.31C282.42,74.55,279.68,76.86,274.88,76.62z M274.14,62.86l0.73-4.26c-1.65,0.09-2.43,0.85-2.6,1.84
			C272.1,61.43,272.9,62.22,274.14,62.86z M278.07,71c0.17-1-0.6-1.77-1.81-2.44l-0.71,4.13C277.11,72.59,277.9,71.93,278.07,71z"/>
	</g>
</g>
<g id="Background_simple" style="display:none;">
	<g id="freepik--background-simple--inject-2" style="display:inline;">
		<path style="opacity:0.4;fill:#E0E0E0;enable-background:new    ;" d="M63.77,191.2C75,279.38,119,342.17,248.29,366.3
			c71.89,13.41,203-29.44,194.34-107.69c-9.6-86.87-100.12-50.48-174.79-78.49C223.18,163.37,199.35,72.2,126.91,77.59
			C69.64,81.85,57.77,144,63.77,191.2z"/>
	</g>
</g>
<g id="Floor">
	<path style="fill:#263238;" d="M455.25,455.46c0,0.15-129.16,0.26-215.17,0.26S48,455.61,48,455.46s106-0.26,192.08-0.26
		S455.25,455.32,455.25,455.46z"/>
</g>
<g id="Plant">
	<g>
		<path style="fill:#FF725E;" d="M122.78,414.6c17.16-12,21.06-34.25,20.38-54.26c-0.11-3.34,0.25-6.86-1.33-9.8
			s-5.3-4.93-8.29-3.52c-2.48,1.17-3.56,4.05-4.95,6.44c-1.858,3.181-4.575,5.773-7.84,7.48c-2.12,1.1-4.75,1.78-6.85,0.62
			c-2.88-1.59-3.22-5.57-3.2-8.89c0.04-6.193,0.077-12.387,0.11-18.58c0-3.32,0-6.71-1-9.86c-1-3.15-3.32-6.09-6.48-7
			c-3.16-0.91-7.07,0.94-7.73,4.19c-0.129,1.373-0.162,2.753-0.1,4.13c-0.09,1.38-0.73,2.91-2,3.29c-1.27,0.38-2.66-0.55-3.65-1.52
			c-3.43-3.36-5.76-7.68-7.93-12s-4.29-8.7-7.4-12.36c-3.11-3.66-7.41-6.56-12.17-6.83c-4.76-0.27-9.83,2.67-11,7.34
			c-1.17,4.67,1.53,9.44,4.5,13.23c4.412,5.624,9.612,10.581,15.44,14.72c1.136,0.621,2.041,1.592,2.58,2.77
			c0.72,2.22-1.37,4.42-3.56,5.15c-2.48,0.82-5.16,0.56-7.75,0.87s-5.4,1.45-6.38,3.89c-1.36,3.4,1.48,7,4.27,9.29
			c5.597,4.669,11.957,8.34,18.8,10.85c2.45,0.9,5,1.68,7,3.4s3.16,4.7,2,7s-4.25,3.09-6.81,2.62c-2.56-0.47-4.85-1.87-7.29-2.79
			c-4.56-1.72-10.46-1.41-13.38,2.54c-1.93,2.59-2.09,6.21-1.12,9.3c1.103,3.042,2.803,5.834,5,8.21
			c7.24,8.688,16.653,15.302,27.28,19.17c10.59,3.67,20.4,4.66,30.93,0.81"/>
		<path style="fill:#263238;" d="M56.08,299c0.093,0.119,0.201,0.227,0.32,0.32l1,0.88c0.87,0.77,2.15,1.9,3.76,3.41
			c4.569,4.241,8.811,8.821,12.69,13.7c2.48,3.08,5,6.56,7.73,10.35c2.73,3.79,5.53,7.88,8.36,12.28
			c2.985,4.582,5.719,9.322,8.19,14.2c1.28,2.54,2.43,5.19,3.59,7.9l3.53,8.24c4.54,10.436,8.49,21.12,11.83,32
			c2.697,8.893,4.552,18.02,5.54,27.26c0.65,6.232,0.754,12.51,0.31,18.76c-0.17,2.22-0.34,3.93-0.5,5.09
			c-0.06,0.56-0.11,1-0.15,1.32c-0.014,0.153-0.014,0.307,0,0.46c0.043-0.147,0.073-0.298,0.09-0.45c0-0.32,0.13-0.76,0.22-1.31
			c0.19-1.16,0.4-2.87,0.61-5.09c0.535-6.264,0.495-12.564-0.12-18.82c-0.925-9.28-2.744-18.449-5.43-27.38
			c-3.33-10.925-7.287-21.65-11.85-32.12l-3.53-8.24c-1.17-2.71-2.32-5.39-3.61-7.94c-2.49-4.888-5.248-9.635-8.26-14.22
			c-2.85-4.41-5.71-8.48-8.41-12.27c-2.7-3.79-5.31-7.26-7.81-10.33c-3.923-4.867-8.227-9.414-12.87-13.6
			c-1.64-1.48-2.94-2.59-3.84-3.32l-1-0.84L56.08,299z"/>
		<path style="fill:#263238;" d="M98.48,353.81c0.163-0.46,0.273-0.936,0.33-1.42c0.17-0.92,0.38-2.25,0.61-3.91
			c0.47-3.3,1-7.89,1.49-13c0.49-5.11,1.08-9.63,1.6-12.92c0.25-1.65,0.47-3,0.64-3.9c0.115-0.472,0.175-0.955,0.18-1.44
			c-0.183,0.448-0.321,0.914-0.41,1.39c-0.24,0.91-0.53,2.23-0.83,3.87c-0.64,3.29-1.26,7.87-1.79,12.94c-0.53,5.07-1,9.51-1.31,13
			c-0.16,1.56-0.3,2.87-0.42,3.93C98.486,352.832,98.456,353.322,98.48,353.81z"/>
		<path style="fill:#263238;" d="M55.77,345.83c0.56,0.117,1.129,0.183,1.7,0.2c1.1,0.1,2.69,0.23,4.64,0.46
			c3.91,0.42,9.3,1.19,15.2,2.3c5.9,1.11,11.2,2.37,15,3.38c1.91,0.49,3.44,0.93,4.51,1.23c0.54,0.186,1.095,0.323,1.66,0.41
			c-0.507-0.267-1.04-0.482-1.59-0.64c-1-0.37-2.56-0.87-4.46-1.42c-3.79-1.12-9.09-2.44-15-3.56
			c-5.05-0.977-10.146-1.691-15.27-2.14c-2-0.17-3.56-0.24-4.66-0.26C56.924,345.74,56.343,345.754,55.77,345.83z"/>
		<path style="fill:#263238;" d="M117.09,401.27c0.122-0.158,0.22-0.333,0.29-0.52l0.73-1.54c0.63-1.35,1.49-3.32,2.52-5.76
			c2.06-4.9,4.69-11.75,7.5-19.34c2.81-7.59,5.37-14.47,7.32-19.39l2.34-5.84c0.25-0.63,0.45-1.16,0.62-1.59
			c0.088-0.18,0.149-0.372,0.18-0.57c-0.122,0.158-0.22,0.333-0.29,0.52l-0.73,1.55c-0.63,1.34-1.49,3.31-2.52,5.76
			c-2.06,4.89-4.69,11.74-7.5,19.34c-2.81,7.6-5.37,14.46-7.32,19.39l-2.34,5.83l-0.62,1.59
			C117.183,400.88,117.122,401.072,117.09,401.27z"/>
		<path style="fill:#263238;" d="M60.33,383c0.175,0.102,0.364,0.18,0.56,0.23l1.65,0.55l6.08,2c5.13,1.67,12.19,4,20,6.69
			s14.89,5,20.06,6.52c2.59,0.78,4.68,1.39,6.14,1.78l1.68,0.44c0.194,0.062,0.396,0.099,0.6,0.11
			c-0.18-0.101-0.371-0.178-0.57-0.23l-1.64-0.55l-6.08-2c-5.13-1.67-12.19-4-20-6.69s-14.89-5-20-6.51
			c-2.59-0.78-4.68-1.39-6.14-1.79l-1.68-0.44C60.776,383.043,60.554,383.006,60.33,383z"/>
	</g>
</g>
<g id="Device">
	<g>
		<path style="fill:#263238;" d="M285.84,405.54l-111-0.51c-13.349-0.061-24.121-10.931-24.06-24.28c0,0,0,0,0,0L152,102.49
			c0.066-13.352,10.938-24.125,24.29-24.07l111,0.51c13.35,0.061,24.125,10.93,24.07,24.28l-1.18,278.26
			c-0.055,13.349-10.921,24.125-24.269,24.07C285.887,405.54,285.864,405.54,285.84,405.54z"/>
		<path style="fill:#FFFFFF;" d="M287.08,88.54l-21.51-0.1c-2.949,0.049-5.299,2.48-5.25,5.429c0,0,0,0.001,0,0.001v3.91
			c0.05,2.951-2.299,5.385-5.25,5.44l-41.94-0.2c-2.951-0.076-5.283-2.529-5.21-5.48v-3.91c0.073-2.947-2.253-5.398-5.2-5.48h-7.57
			L176.32,88c-9.35-0.039-16.961,7.51-17,16.86c0,0,0,0,0,0l-1.15,271.6c-0.033,9.344,7.506,16.95,16.85,17l110.77,0.51
			c9.348,0.033,16.956-7.512,17-16.86l1.15-271.6C303.962,96.172,296.418,88.579,287.08,88.54z"/>
		<rect x="190.58" y="222.86" style="fill:#FF725E;" width="71.34" height="68.72"/>
		<polygon style="fill:#FF725E;" points="210.25,203.71 190.57,222.86 261.91,222.86 275.55,203.71 		"/>
		<polygon style="opacity:0.1;enable-background:new    ;" points="210.25,203.71 190.57,222.86 261.91,222.86 275.55,203.71 		"/>
		<polygon style="fill:#FF725E;" points="261.91,291.57 275.55,272.17 275.55,203.71 261.91,222.86 		"/>
		<polygon style="opacity:0.3;enable-background:new    ;" points="261.91,291.57 275.55,272.17 275.55,203.71 261.91,222.86 		"/>
		<rect x="206.01" y="251.39" style="fill:#FF725E;" width="37.24" height="4.22"/>
		<rect x="206.01" y="251.39" style="opacity:0.2;enable-background:new    ;" width="37.24" height="4.22"/>
		<rect x="212.75" y="258.77" style="fill:#FF725E;" width="23.77" height="3.98"/>
		<rect x="212.75" y="258.77" style="opacity:0.2;enable-background:new    ;" width="23.77" height="3.98"/>
		<path style="fill:#263238;" d="M205.12,201c-0.095-0.867-0.238-1.729-0.43-2.58c-0.619-2.307-1.996-4.34-3.91-5.77
			c-1.3-0.985-2.815-1.65-4.42-1.94c-1.84-0.329-3.735-0.164-5.49,0.48c-0.95,0.335-1.841,0.817-2.64,1.43
			c-0.849,0.616-1.592,1.366-2.2,2.22c-2.706,3.665-2.706,8.665,0,12.33c0.611,0.852,1.353,1.602,2.2,2.22
			c0.804,0.605,1.694,1.087,2.64,1.43c3.342,1.225,7.077,0.671,9.92-1.47c1.906-1.432,3.279-3.459,3.9-5.76
			C204.883,202.736,205.027,201.871,205.12,201c0.068,0.887-0.01,1.779-0.23,2.64c-0.559,2.387-1.926,4.507-3.87,6
			c-2.932,2.28-6.828,2.896-10.32,1.63c-2.04-0.731-3.816-2.055-5.1-3.8c-2.874-3.857-2.874-9.143,0-13
			c1.289-1.741,3.063-3.063,5.1-3.8c1.84-0.654,3.822-0.805,5.74-0.44c4.161,0.803,7.466,3.968,8.45,8.09
			C205.116,199.194,205.194,200.1,205.12,201z"/>
		<path style="fill:#263238;" d="M189.64,199.52c0-1.5,0.84-2.5,2.08-2.5s2.08,1,2.08,2.5s-0.86,2.5-2.08,2.5
			S189.64,201,189.64,199.52z M193.14,199.52c0-1.2-0.57-1.91-1.42-1.91s-1.42,0.72-1.42,1.91s0.55,1.9,1.42,1.9
			S193.14,200.71,193.14,199.52z M197.29,197.08h0.78l-6.29,9.21H191L197.29,197.08z M195.29,203.86c0-1.5,0.86-2.5,2.08-2.5
			s2.08,1,2.08,2.5s-0.84,2.5-2.08,2.5c-1.24,0-2.09-1-2.09-2.5H195.29z M198.79,203.86c0-1.19-0.55-1.91-1.42-1.91
			c-0.87,0-1.42,0.71-1.42,1.91s0.57,1.9,1.42,1.9c0.85,0,1.41-0.76,1.41-1.9H198.79z"/>
		<path style="fill:#263238;" d="M250.71,314.82c0,2-1.45,3.7-4.65,3.7c-1.507,0.026-2.988-0.391-4.26-1.2l1-2
			c0.927,0.662,2.041,1.012,3.18,1c1.29,0,2.09-0.54,2.09-1.45s-0.57-1.46-2.6-1.46h-2.86l0.58-6.28H250v2.07h-4.66l-0.17,2.12h0.91
			C249.4,311.35,250.71,312.84,250.71,314.82z"/>
		<path style="fill:#263238;" d="M251.76,312.74c0-3.69,2.05-5.78,4.79-5.78c2.74,0,4.79,2.09,4.79,5.78s-2,5.78-4.79,5.78
			C253.76,318.52,251.76,316.43,251.76,312.74z M258.76,312.74c0-2.54-0.89-3.59-2.19-3.59c-1.3,0-2.17,1.05-2.17,3.59
			c0,2.54,0.9,3.59,2.17,3.59c1.27,0,2.17-1.05,2.17-3.59H258.76z"/>
		<path style="fill:#263238;" d="M268,309.6c0.134,1.213-0.74,2.306-1.953,2.44c-0.122,0.013-0.245,0.017-0.367,0.01
			c-0.44,0.012-0.875-0.095-1.26-0.31l0.39-0.77c0.257,0.16,0.558,0.236,0.86,0.22c0.667,0.042,1.241-0.465,1.283-1.132
			c0.004-0.063,0.003-0.125-0.003-0.188c-0.309,0.285-0.72,0.432-1.14,0.41c-0.793,0.066-1.489-0.522-1.555-1.315
			c-0.003-0.035-0.005-0.07-0.005-0.105c0.023-0.861,0.74-1.541,1.601-1.518c0.04,0.001,0.079,0.004,0.119,0.008
			C267.26,307.35,268,308.13,268,309.6z M266.83,308.81c-0.008-0.387-0.327-0.693-0.714-0.686c-0.026,0.001-0.051,0.002-0.076,0.006
			c-0.376-0.065-0.732,0.187-0.797,0.563c-0.065,0.376,0.187,0.732,0.563,0.797c0.078,0.013,0.157,0.013,0.234,0
			c0.381,0.066,0.743-0.189,0.81-0.57c0.006-0.036,0.01-0.073,0.01-0.11H266.83z"/>
		<path style="fill:#263238;" d="M272.17,309.6c0.134,1.213-0.74,2.306-1.953,2.44c-0.122,0.013-0.245,0.017-0.367,0.01
			c-0.44,0.012-0.876-0.095-1.26-0.31L269,311c0.254,0.159,0.551,0.236,0.85,0.22c0.661,0.048,1.235-0.449,1.283-1.111
			c0.005-0.07,0.004-0.14-0.003-0.209c-0.304,0.286-0.713,0.434-1.13,0.41c-0.798,0.066-1.499-0.527-1.565-1.325
			c-0.003-0.032-0.004-0.063-0.005-0.095c0.022-0.861,0.739-1.541,1.6-1.519c0.043,0.001,0.087,0.004,0.13,0.009
			C271.4,307.35,272.17,308.13,272.17,309.6z M270.99,308.81c-0.008-0.387-0.327-0.693-0.714-0.686
			c-0.025,0.001-0.051,0.002-0.076,0.006c-0.376-0.002-0.681,0.301-0.683,0.677c-0.002,0.376,0.301,0.682,0.677,0.683
			c0.002,0,0.004,0,0.006,0c0.383,0.055,0.738-0.21,0.793-0.593c0.004-0.029,0.007-0.058,0.007-0.087H270.99z"/>
		<rect x="264.15" y="313.61" style="fill:#263238;" width="7.98" height="1.01"/>
		<rect x="185.55" y="310.43" style="fill:#263238;" width="41.2" height="1.28"/>
		<rect x="185.55" y="314.51" style="fill:#263238;" width="25.01" height="1.28"/>
		<path style="fill:#FF725E;" d="M274.19,367.28l-82.37-0.38c-0.85,0-1.54-0.94-1.53-2.08l0.09-21.55c0-1.14,0.7-2.06,1.55-2.06
			l82.37,0.39c0.85,0,1.54,0.93,1.54,2.07l-0.09,21.55C275.74,366.36,275.05,367.28,274.19,367.28z"/>
		<path style="fill:#FFFFFF;" d="M229.65,355.21c0,1.1-0.78,1.72-2.32,1.71h-2.84v-6.45h2.67c1.37,0,2.16,0.62,2.16,1.67
			c0.023,0.653-0.383,1.245-1,1.46C229.12,353.699,229.704,354.406,229.65,355.21z M229,355.15c0-0.84-0.58-1.21-1.67-1.21h-2.18
			v2.42h2.18C228.41,356.37,229,356,229,355.15z M225.16,351v2.34h2c1,0,1.56-0.39,1.57-1.16c0.01-0.77-0.57-1.17-1.56-1.18H225.16z
			"/>
		<path style="fill:#FFFFFF;" d="M231.1,354.18v-3.69h0.65v3.67c0,1.53,0.68,2.23,1.88,2.24c1.2,0.01,1.9-0.69,1.9-2.22v-3.67h0.63
			v3.7c0,1.85-1,2.8-2.54,2.8C232.08,357.01,231.09,356,231.1,354.18z"/>
		<path style="fill:#FFFFFF;" d="M240.16,354.75V357h-0.64v-2.23l-2.45-4.23h0.69l2.11,3.63l2.13-3.61h0.65L240.16,354.75z"/>
		<rect x="174.92" y="148.85" style="fill:#FF725E;" width="31.14" height="15.9"/>
		<polygon style="fill:#FF725E;" points="181.64,143.28 174.92,148.85 206.06,148.85 210.65,143.28 		"/>
		<polygon style="opacity:0.2;enable-background:new    ;" points="181.64,143.28 174.92,148.85 206.06,148.85 210.65,143.28 		"/>
		<polygon style="fill:#FF725E;" points="206.06,164.75 210.65,158.69 210.65,143.28 206.06,148.85 		"/>
		<polygon style="opacity:0.1;enable-background:new    ;" points="206.06,164.75 210.65,158.69 210.65,143.28 206.06,148.85 		"/>
		<rect x="179.53" y="154.02" style="fill:#FF725E;" width="21.23" height="1.64"/>
		<rect x="179.53" y="154.02" style="opacity:0.1;enable-background:new    ;" width="21.23" height="1.64"/>
		<rect x="183.73" y="156.98" style="fill:#FF725E;" width="13.18" height="1.64"/>
		<rect x="183.73" y="156.98" style="opacity:0.1;enable-background:new    ;" width="13.18" height="1.64"/>
		<rect x="183.73" y="173.32" style="fill:#263238;" width="14.19" height="2.17"/>
		<path style="fill:#FF725E;" d="M174.92,148.85c0.5-0.075,1.005-0.108,1.51-0.1l4.11-0.09c3.47,0,8.27-0.07,13.56-0.07l12,0.06
			l-0.16,0.07l3.42-4c0.404-0.512,0.848-0.99,1.33-1.43c-0.34,0.557-0.724,1.086-1.15,1.58l-3.32,4.13l-0.06,0.07h-0.1l-12,0.06
			c-5.29,0-10.09,0-13.56-0.08l-4.11-0.08C175.897,148.98,175.405,148.939,174.92,148.85z"/>
		<g style="opacity:0.2;">
			<path d="M174.92,148.85c0.5-0.075,1.005-0.108,1.51-0.1l4.11-0.09c3.47,0,8.27-0.07,13.56-0.07l12,0.06l-0.16,0.07l3.42-4
				c0.404-0.512,0.848-0.99,1.33-1.43c-0.34,0.557-0.724,1.086-1.15,1.58l-3.32,4.13l-0.06,0.07h-0.1l-12,0.06
				c-5.29,0-10.09,0-13.56-0.08l-4.11-0.08C175.897,148.98,175.405,148.939,174.92,148.85z"/>
		</g>
		<path style="fill:#FF725E;" d="M206.06,164.75c-0.263-2.641-0.35-5.297-0.26-7.95c-0.092-2.669-0.006-5.342,0.26-8
			c0.272,2.657,0.363,5.33,0.27,8C206.42,159.453,206.33,162.109,206.06,164.75z"/>
		<g style="opacity:0.2;">
			<path d="M206.06,164.75c-0.263-2.641-0.35-5.297-0.26-7.95c-0.092-2.669-0.006-5.342,0.26-8c0.272,2.657,0.363,5.33,0.27,8
				C206.42,159.453,206.33,162.109,206.06,164.75z"/>
		</g>
		<rect x="228.15" y="173.32" style="fill:#263238;" width="14.19" height="2.17"/>
		
			<rect x="222.396" y="141.27" transform="matrix(0.0084 -1 1 0.0084 80.3103 385.8564)" style="fill:#FF725E;" width="24.62" height="22.33"/>
		<polygon style="fill:#FF725E;" points="230.15,135.07 223.56,140.13 245.89,140.13 250.48,135.07 		"/>
		<polygon style="fill:#FF725E;" points="245.89,164.75 250.48,158.69 250.48,135.07 245.89,140.13 		"/>
		<rect x="228.4" y="150.08" style="fill:#FF725E;" width="11.29" height="1.64"/>
		<rect x="228.4" y="150.08" style="opacity:0.2;enable-background:new    ;" width="11.29" height="1.64"/>
		<rect x="230.64" y="153.05" style="fill:#FF725E;" width="7.01" height="1.64"/>
		<rect x="230.64" y="153.05" style="opacity:0.2;enable-background:new    ;" width="7.01" height="1.64"/>
		<path style="fill:#FF725E;" d="M223.56,140.13c0.379-0.075,0.764-0.108,1.15-0.1l3.12-0.09c2.64-0.05,6.28-0.08,10.31-0.08h7.75
			l-0.17,0.07c1.4-1.51,2.57-2.75,3.4-3.61c0.409-0.478,0.865-0.913,1.36-1.3c-0.342,0.527-0.73,1.022-1.16,1.48
			c-0.78,0.91-1.9,2.19-3.26,3.73l-0.07,0.08h-0.1h-7.75c-4,0-7.67,0-10.31-0.08l-3.12-0.08
			C224.327,140.189,223.941,140.182,223.56,140.13z"/>
		<g style="opacity:0.3;">
			<path d="M223.56,140.13c0.379-0.075,0.764-0.108,1.15-0.1l3.12-0.09c2.64-0.05,6.28-0.08,10.31-0.08h7.75l-0.17,0.07
				c1.4-1.51,2.57-2.75,3.4-3.61c0.409-0.478,0.865-0.913,1.36-1.3c-0.342,0.527-0.73,1.022-1.16,1.48
				c-0.78,0.91-1.9,2.19-3.26,3.73l-0.07,0.08h-0.1h-7.75c-4,0-7.67,0-10.31-0.08l-3.12-0.08
				C224.327,140.189,223.941,140.182,223.56,140.13z"/>
		</g>
		<path style="fill:#FF725E;" d="M245.89,164.75c-0.15,0-0.27-5.51-0.27-12.31s0.12-12.31,0.27-12.31s0.27,5.51,0.27,12.31
			S246,164.75,245.89,164.75z"/>
		<g style="opacity:0.3;">
			<path d="M245.89,164.75c-0.15,0-0.27-5.51-0.27-12.31s0.12-12.31,0.27-12.31s0.27,5.51,0.27,12.31S246,164.75,245.89,164.75z"/>
		</g>
		<rect x="267.69" y="173.32" style="fill:#263238;" width="14.19" height="2.17"/>
		<path style="fill:#FF725E;" d="M264.65,149.26c1.159-0.163,2.33-0.226,3.5-0.19c2.17,0,5.16-0.08,8.47-0.08
			c2.93,0,5.62,0,7.66,0.06l-0.15,0.07c0.91-1,1.65-1.74,2.18-2.27c0.251-0.297,0.54-0.559,0.86-0.78
			c-0.188,0.339-0.42,0.652-0.69,0.93c-0.47,0.58-1.17,1.4-2,2.39l-0.06,0.07h-0.1c-2,0-4.73,0.06-7.66,0.06
			c-3.31,0-6.3,0-8.47-0.08C267.007,149.472,265.824,149.411,264.65,149.26z"/>
		<rect x="264.65" y="149.26" style="fill:#FF725E;" width="19.64" height="15.5"/>
		<rect x="264.65" y="149.26" style="opacity:0.2;enable-background:new    ;" width="19.64" height="15.5"/>
		<polygon style="fill:#FF725E;" points="268.8,146.07 264.65,149.25 284.29,149.25 287.17,146.07 		"/>
		<polygon style="fill:#FF725E;" points="284.29,164.75 287.17,160.94 287.17,146.07 284.29,149.25 		"/>
		<polygon style="opacity:0.1;enable-background:new    ;" points="284.29,164.75 287.17,160.94 287.17,146.07 284.29,149.25 		"/>
		<rect x="270.21" y="155.17" style="fill:#FF725E;" width="8.99" height="1.2"/>
		<rect x="271.99" y="157.35" style="fill:#FF725E;" width="5.58" height="1.2"/>
		<path style="fill:#FF725E;" d="M284.29,164.75c-0.277-2.573-0.374-5.163-0.29-7.75c-0.09-2.583,0-5.169,0.27-7.74
			c0.258,2.571,0.344,5.157,0.26,7.74C284.621,159.586,284.541,162.175,284.29,164.75z"/>
	</g>
</g>
<g id="Sparkles">
	<g>
		<polygon style="fill:#FF725E;" points="312.32,74.58 310.28,78.3 306.56,80.33 310.28,82.37 312.32,86.08 314.35,82.37 
			318.07,80.33 314.35,78.3 		"/>
		<polygon style="fill:#FF725E;" points="138.35,170.27 136.31,173.99 132.59,176.02 136.31,178.05 138.35,181.77 140.38,178.05 
			144.1,176.02 140.38,173.99 		"/>
		<polygon style="fill:#FF725E;" points="327.14,90.36 325.89,92.64 323.61,93.89 325.89,95.14 327.14,97.43 328.4,95.14 
			330.68,93.89 328.4,92.64 		"/>
		<polygon style="fill:#FF725E;" points="127.19,148.89 125.94,151.17 123.66,152.42 125.94,153.67 127.19,155.96 128.44,153.67 
			130.72,152.42 128.44,151.17 		"/>
	</g>
</g>
<g id="Character">
	<g>
		<path style="fill:#FF725E;" d="M409.69,409l-7.36-5.79l10.75-13.85l10.85,8.35l-0.61,0.9c-2.75,4-14.28,20.08-17,22
			C403.2,422.86,409.69,409,409.69,409z"/>
		<path style="fill:#263238;" d="M405.35,420.48c-0.13-0.1,3.82-5.34,8.82-11.7c5-6.36,9.16-11.43,9.29-11.33
			c0.13,0.1-3.82,5.34-8.82,11.7C409.64,415.51,405.48,420.58,405.35,420.48z"/>
		<path style="fill:#263238;" d="M411,410.46c0,0.16-0.51,0.22-1.07,0.22s-1.05-0.08-1.07-0.24c-0.02-0.16,0.45-0.37,1.07-0.36
			C410.55,410.09,411,410.3,411,410.46z"/>
		<path style="fill:#263238;" d="M410.79,411.72c-0.05,0.16-0.58,0.15-1.2,0.06s-1.14-0.21-1.14-0.37s0.55-0.31,1.22-0.22
			C410.34,411.28,410.84,411.56,410.79,411.72z"/>
		<path style="fill:#263238;" d="M420.14,401.56c-0.08,0-0.25-0.29-0.45-0.83c-0.269-0.723-0.402-1.489-0.39-2.26
			c0.013-0.806,0.302-1.582,0.82-2.2c0.41-0.46,0.79-0.57,0.83-0.5c0.04,0.07-0.22,0.3-0.49,0.75c-0.353,0.608-0.546,1.297-0.56,2
			c-0.001,0.715,0.066,1.428,0.2,2.13C420.19,401.18,420.22,401.54,420.14,401.56z"/>
		<path style="fill:#263238;" d="M409.58,409.41c-0.06-0.15,0.24-0.42,0.63-0.67c0.39-0.25,0.77-0.41,0.88-0.29
			c0.11,0.12-0.11,0.51-0.55,0.8C410.1,409.54,409.64,409.57,409.58,409.41z"/>
		<path style="fill:#263238;" d="M409,408.64c-0.12-0.12,0.07-0.57,0.42-1c0.35-0.43,0.76-0.73,0.9-0.63c0.14,0.1-0.06,0.54-0.43,1
			C409.52,408.47,409.16,408.75,409,408.64z"/>
		<path style="fill:#263238;" d="M360.93,290c0,0-22,58.34-19,69.24c3,10.9,62.18,54.18,62.18,54.18l16.07-23.14
			c0,0-46.18-36.55-46.33-38.56s18.34-50.49,18.34-50.49L360.93,290z"/>
		<path style="fill:#455A64;" d="M403.09,395.63l-0.21-0.11c-0.15-0.11-0.34-0.23-0.58-0.38l-2.2-1.51c-1.89-1.33-4.63-3.27-8-5.73
			c-6.66-4.92-15.71-11.94-25.31-20.16c-2.4-2.06-4.73-4.09-7-6.06l-3.27-2.93c-1.116-0.897-2.07-1.98-2.82-3.2
			c-0.617-1.257-0.763-2.694-0.41-4.05c0.25-1.29,0.58-2.5,0.89-3.69c0.63-2.35,1.26-4.53,1.83-6.52l2.74-9.41
			c0.3-1.08,0.54-1.94,0.72-2.57l0.18-0.67c-0.064-0.017-0.103-0.082-0.086-0.146s0.082-0.103,0.146-0.086s0.103,0.082,0.086,0.146
			c-0.011,0.042-0.044,0.075-0.086,0.086c0,0.18-0.08,0.41-0.14,0.68c-0.13,0.59-0.33,1.47-0.62,2.59
			c-0.57,2.25-1.46,5.48-2.57,9.47c-0.55,2-1.16,4.17-1.77,6.53c-0.3,1.17-0.62,2.4-0.86,3.65c-0.32,1.253-0.181,2.579,0.39,3.74
			c0.726,1.165,1.646,2.196,2.72,3.05l3.28,2.91c2.23,2,4.56,4,7,6.05c9.59,8.21,18.59,15.27,25.19,20.26l7.86,5.87l2.14,1.59
			l0.55,0.42C403,395.57,403.1,395.63,403.09,395.63z"/>
		<path style="fill:#455A64;" d="M397.73,402.68c-0.12-0.09,2.93-4.3,6.81-9.4s7.13-9.17,7.25-9.08c0.12,0.09-2.94,4.3-6.82,9.41
			C401.09,398.72,397.85,402.77,397.73,402.68z"/>
		<path style="fill:#263238;" d="M399.71,179.06c2,3.92,3,7.32,6.88,9.34c1.75,0.92,3.89,1.44,5,3.1c1.15,1.82,0.61,4.45,2.06,6
			c2.12,2.31,6.44,0.44,8.81,2.47c2.12,1.82,1.44,5.72,3.73,7.32c1.28,0.91,3,0.71,4.5,1.27c2.4,0.93,3.54,3.7,3.85,6.25
			c0.328,2.047,0.068,4.145-0.75,6.05c-0.852,1.92-2.624,3.273-4.7,3.59c-2.73,0.29-5.81-1.59-8,0
			c-0.711,0.661-1.33,1.414-1.84,2.24c-2.345,2.982-6.664,3.499-9.647,1.154c-0.656-0.516-1.213-1.148-1.643-1.864
			c-1.52-2.54-1.42-6-3.65-8c-1.267-0.886-2.683-1.536-4.18-1.92c-1.45-0.54-2.95-1.44-3.38-2.92c-0.497-1.31-1.207-2.53-2.1-3.61
			c-1.11-1.66-2.59,0.37-4.07-0.45c-1.48-0.82-0.91-2.42-1-4.1"/>
		<path style="fill:#E5BAAB;" d="M373.84,235.74l-19-6.35c0,0-8.39,24.16-11,24.4c-14.24,1.3-29.48-3.43-34.82-5.29
			c-0.55-0.61-1.17-1.34-1.86-2.24c-0.588-0.772-1.041-1.637-1.34-2.56c-0.413-1.133-0.668-2.317-0.76-3.52
			c0.056-0.616-0.399-1.161-1.015-1.216c-0.337-0.03-0.67,0.093-0.905,0.336c-0.61,0.8-0.77,3.85,0.63,7.14
			c1.4,3.29-3.57,0.67-5.4-0.25c-1.83-0.92-7.62-3.5-8.35-3.16c-1.07,0.5-0.73,1.73,1.12,2.61c1.85,0.88,7.21,3.89,6.67,4.83
			s-9.77-3.88-9.77-3.88s-1.82-1.34-2.47-0.27c-1.17,1.93,9,6.31,10,6.7c0.69,0.28,0.15,1.32-0.57,1c-0.72-0.32-9-5.02-10.24-3.02
			c-0.94,1.5,8.36,3.69,9.56,5.62c1.2,1.93-6.88-2.37-7.71-0.9c-0.31,0.54-0.47,1,4.53,2.8c3.664,1.143,7.386,2.091,11.15,2.84v0.05
			c0,0,49.94,22.34,60.72,0.81C374.42,239.32,373.84,235.74,373.84,235.74z"/>
		<path style="fill:#FF725E;" d="M392.61,215.73L392.61,215.73l8.29,0.15l6.58,18.87l-5.36,21.62c-1.57,6.31,5.55,18.95,5.36,25.92
			L361,289.82l-1-31.05v-1l-16.09-8l5.31-13c8.17-19.14,22.44-20.3,22.44-20.3L392.61,215.73z"/>
		<g style="opacity:0.2;">
			<path style="fill:#FFFFFF;" d="M392.61,215.73L392.61,215.73l8.29,0.15l6.58,18.87l-5.36,21.62c-1.57,6.31,5.55,18.95,5.36,25.92
				L361,289.82l-1-31.05v-1l-16.09-8l5.31-13c8.17-19.14,22.44-20.3,22.44-20.3L392.61,215.73z"/>
		</g>
		<path style="fill:#455A64;" d="M401.24,215.93c0,0-0.09,0-0.27,0.11c-0.266,0.091-0.536,0.168-0.81,0.23
			c-1.063,0.195-2.14,0.302-3.22,0.32l0.1-0.19l3.17,5.15l0.22,0.34l-0.41-0.07c-1.836-0.316-3.707-0.377-5.56-0.18l0.19-0.24
			c0.071,2.113,0.373,4.212,0.9,6.26l0.14,0.42l-0.44-0.1c-2.112-0.45-4.149-1.197-6.05-2.22l0.39-0.17
			c-0.38,1.86-0.77,3.81-1.17,5.8l-0.09,0.43l-0.34-0.27c-0.84-0.667-1.638-1.385-2.39-2.15c-0.744-0.743-1.442-1.531-2.09-2.36
			l0.38,0.05l-5.32,4.19l-0.33,0.26l-0.09-0.41c-0.38-1.85-0.74-3.65-1.09-5.37l0.32,0.18l-5.69,2l-0.39,0.14l0.11-0.4
			c0.6-2.27,1.15-4.33,1.65-6.16l0.14,0.22l-4.94-0.85h-0.2l0.11-0.17l2.16-3.16l0.58-0.81c0.13-0.18,0.21-0.27,0.22-0.26
			c-0.046,0.104-0.1,0.204-0.16,0.3l-0.52,0.84l-2.05,3.23l-0.09-0.2l4.95,0.75h0.2v0.2l-1.58,6.18l-0.28-0.27l5.66-2l0.27-0.1
			l0.06,0.28l1.12,5.37l-0.42-0.15l5.31-4.21l0.21-0.17l0.17,0.21c0.629,0.788,1.304,1.54,2.02,2.25
			c0.737,0.749,1.519,1.454,2.34,2.11l-0.42,0.16c0.4-2,0.8-3.94,1.18-5.8l0.07-0.36l0.32,0.19c1.854,1,3.841,1.734,5.9,2.18
			l-0.29,0.31c-0.526-2.081-0.814-4.214-0.86-6.36v-0.22h0.22c1.896-0.191,3.809-0.107,5.68,0.25l-0.19,0.28
			c-1.21-2-2.24-3.8-3.08-5.21l-0.1-0.18h0.2c1.073,0.011,2.146-0.056,3.21-0.2C400.86,216,401.24,215.91,401.24,215.93z"/>
		<path style="fill:#455A64;" d="M410.42,223.86c0,0-0.32-0.15-1-0.34c-0.96-0.268-1.972-0.285-2.94-0.05l0.08-0.11
			c0.19,1.1,0.49,2.42,0.9,3.93c0.41,1.51,0.91,3.22,1.36,5.15l0.07,0.28l-0.29-0.08c-2.37-0.69-5.16-1.21-8.09-2.2l0.27-0.22
			c0.31,2.85,0.29,6,0.46,9.4v0.29h-0.3c-2.671-0.464-5.298-1.156-7.85-2.07c-0.32-0.09-0.69-0.22-0.78-0.08
			c-0.201,0.241-0.351,0.52-0.44,0.82l-0.83,2c-0.55,1.35-1.12,2.72-1.69,4.1l-0.17,0.42l-0.28-0.35l-5.32-6.6l-0.4-0.49h0.36
			l-8.54,5.88l-0.28,0.19l-0.12-0.32c-1-2.78-1.9-5.46-2.8-8.06l0.38,0.13c-2.988,1.941-6.181,3.548-9.52,4.79l-0.35,0.14v-0.38
			c0.61-4.33,1.16-8.22,1.63-11.58l0.25,0.19c-2.431,0.958-5.041,1.378-7.65,1.23h-0.17l0.06-0.16l1.79-4.82
			c0.21-0.51,0.36-0.92,0.48-1.23c0.05-0.143,0.113-0.28,0.19-0.41c-0.026,0.147-0.067,0.291-0.12,0.43
			c-0.11,0.32-0.25,0.73-0.42,1.26c-0.4,1.14-1,2.77-1.69,4.86l-0.11-0.17c2.565,0.103,5.122-0.344,7.5-1.31l0.29-0.12v0.31
			c-0.45,3.37-1,7.25-1.54,11.59l-0.31-0.24c3.297-1.252,6.449-2.858,9.4-4.79l0.27-0.17l0.11,0.3l2.82,8l-0.4-0.12l8.55-5.89
			l0.21-0.14l0.15,0.19l0.4,0.49l5.31,6.61l-0.45,0.06l1.7-4.1l0.83-2c0.12-0.378,0.329-0.72,0.61-1
			c0.101-0.09,0.226-0.149,0.36-0.17c0.113-0.011,0.227-0.011,0.34,0c0.186,0.038,0.37,0.088,0.55,0.15
			c2.528,0.908,5.127,1.604,7.77,2.08l-0.28,0.25c-0.15-3.38-0.12-6.55-0.4-9.38v-0.33l0.31,0.11c2.9,1,5.67,1.55,8.06,2.27
			l-0.22,0.2c-0.42-1.91-0.91-3.62-1.29-5.15s-0.66-2.85-0.83-4v-0.09h0.09c0.994-0.224,2.031-0.175,3,0.14
			C409.8,223.496,410.123,223.658,410.42,223.86z"/>
		<path style="fill:#455A64;" d="M360.26,257.5c-0.365-0.108-0.705-0.288-1-0.53c-0.852-0.592-1.582-1.342-2.15-2.21
			c-0.844-1.319-1.228-2.88-1.09-4.44c0.133-3.458,2.069-6.592,5.1-8.26l-0.14,0.2c0.38-2.85,0.73-5.3,1-7
			c0.101-0.928,0.272-1.847,0.51-2.75c0.007,0.937-0.06,1.873-0.2,2.8c-0.17,1.74-0.46,4.2-0.81,7.06v0.12l-0.13,0.07
			c-2.833,1.623-4.651,4.57-4.83,7.83c-0.15,1.465,0.172,2.941,0.92,4.21c0.533,0.859,1.21,1.62,2,2.25
			C359.725,257.052,359.999,257.269,360.26,257.5z"/>
		<path style="fill:#455A64;" d="M362,236.55c-0.13,0.07-0.59-0.6-1-1.48c-0.41-0.88-0.68-1.65-0.54-1.72c0.14-0.07,0.59,0.6,1,1.49
			S362.15,236.49,362,236.55z"/>
		<path style="fill:#E5BAAB;" d="M392.05,216l1.43-32.67l-13-9.83l-11.79,5.76c0,0-0.4,14.81,0,21.24s6.87,7.1,6.87,7.1
			s-0.15,3.77-0.3,7.72c-0.183,4.624,3.418,8.521,8.043,8.704c0.139,0.005,0.278,0.007,0.417,0.006l0,0
			C388.193,224.002,391.858,220.469,392.05,216z"/>
		<path style="fill:#263238;" d="M370,190.06c-0.006,0.458,0.362,0.834,0.82,0.84c0.458,0.005,0.834-0.362,0.84-0.82
			c0.006-0.458-0.362-0.834-0.82-0.84c-0.007,0-0.013,0-0.02,0C370.367,189.24,370,189.607,370,190.06L370,190.06z"/>
		<path style="fill:#263238;" d="M369.2,189.16c0.1,0.11,0.71-0.41,1.59-0.46s1.55,0.38,1.65,0.26c0.1-0.12-0.07-0.24-0.36-0.44
			c-0.803-0.522-1.852-0.461-2.59,0.15C369.23,188.91,369.14,189.12,369.2,189.16z"/>
		<path style="fill:#263238;" d="M379.52,190.06c0,0.453,0.367,0.82,0.82,0.82c0.453,0,0.82-0.367,0.82-0.82
			c0-0.453-0.367-0.82-0.82-0.82C379.887,189.24,379.52,189.607,379.52,190.06L379.52,190.06z"/>
		<path style="fill:#263238;" d="M379,189.16c0.1,0.11,0.71-0.41,1.6-0.46c0.89-0.05,1.54,0.38,1.64,0.26
			c0.1-0.12-0.07-0.24-0.36-0.44c-0.803-0.522-1.852-0.461-2.59,0.15C379,188.91,379,189.12,379,189.16z"/>
		<path style="fill:#FFFFFF;" d="M378.74,197.47c-1.349,0.694-2.79,1.192-4.28,1.48c0.672,0.914,1.878,1.256,2.93,0.83
			c0.99-0.23,1.606-1.218,1.377-2.208C378.759,197.538,378.75,197.504,378.74,197.47z"/>
		<path style="fill:#D78776;" d="M375.57,207.6c3.052-0.125,6.005-1.12,8.51-2.87c0,0-1.93,4.72-8.37,4.45L375.57,207.6z"/>
		<path style="fill:#263238;" d="M412.17,201.79c-0.81,0.031-1.613-0.152-2.33-0.53c-1.06-0.567-1.939-1.419-2.54-2.46
			c-0.747-1.301-1.382-2.662-1.9-4.07c-1.2-3-2.1-5.75-2.72-7.77c-0.09-0.32-0.18-0.61-0.26-0.89c-0.08-0.28-0.11-0.65-0.17-0.88
			c-3.51-13.39-15.25-15.89-17.61-15.89c-2.49,0-6.86-1.37-13.23,5.24c-0.961,0.993-1.776,2.117-2.42,3.34
			c-1.407,1.766-2.38,3.839-2.84,6.05c-0.283,1.04-0.334,2.129-0.15,3.19c0.12,0,0.14-1.22,0.64-3.08
			c0.3-1.094,0.716-2.154,1.24-3.16c-0.557,2.474-0.33,5.061,0.65,7.4l2.28-0.63l8.18-2.78c-0.74-2.54,0.35-5.68,1-7.15l0.06-0.05
			c0.944,5.478,5.316,9.721,10.82,10.5l1.51,21c10.87-2.32,10.62-16.87,10.55-19.83c0.5,1.67,1.14,3.58,1.94,5.59
			c0.535,1.44,1.205,2.826,2,4.14c0.677,1.105,1.66,1.991,2.83,2.55c0.788,0.371,1.669,0.5,2.53,0.37
			c0.319-0.029,0.624-0.147,0.88-0.34C413.11,201.65,412.74,201.75,412.17,201.79z"/>
		<path style="fill:#263238;" d="M375.81,196.64c-0.47-0.124-0.954-0.184-1.44-0.18c-0.23,0-0.45-0.05-0.5-0.21
			c-0.028-0.247,0.017-0.498,0.13-0.72l0.6-1.83c0.43-1.31,0.79-2.5,1-3.36c0.165-0.459,0.276-0.935,0.33-1.42
			c-0.246,0.421-0.438,0.871-0.57,1.34c-0.3,0.85-0.7,2-1.13,3.33c-0.2,0.64-0.39,1.26-0.58,1.84
			c-0.128,0.289-0.157,0.613-0.08,0.92c0.064,0.161,0.202,0.28,0.37,0.32c0.129,0.018,0.261,0.018,0.39,0
			C374.823,196.722,375.32,196.712,375.81,196.64z"/>
		<path style="fill:#E5BAAB;" d="M394.16,196.37c-0.101-1.069,0.018-2.148,0.35-3.17c0.347-1.038,1.233-1.805,2.31-2
			c1.275-0.053,2.389,0.852,2.6,2.11c0.15,1.255-0.474,2.477-1.58,3.09c-1.111,0.582-2.428,0.618-3.57,0.1"/>
		<path style="fill:#D78776;" d="M396,195.43c0-0.07,0.35,0.09,0.81-0.05c0.59-0.193,0.992-0.739,1-1.36
			c0.047-0.306-0.037-0.618-0.23-0.86c-0.198-0.156-0.449-0.231-0.7-0.21c-0.48,0.05-0.82,0.17-0.85,0.09
			c-0.03-0.08,0.22-0.3,0.79-0.46c0.373-0.101,0.772-0.023,1.08,0.21c0.341,0.324,0.505,0.794,0.44,1.26
			c-0.023,0.442-0.192,0.864-0.48,1.2c-0.235,0.284-0.573,0.464-0.94,0.5C396.27,195.82,396,195.47,396,195.43z"/>
		<path style="fill:#FF725E;" d="M386.19,450.82v-9.36l17.54-0.11l0.14,13.69l-1.08,0.08c-4.84,0.3-24.62,1.18-27.86,0.22
			C371.32,454.27,386.19,450.82,386.19,450.82z"/>
		<path style="fill:#263238;" d="M374.52,454.48c0-0.16,6.56-0.3,14.65-0.3c8.09,0,14.64,0.14,14.64,0.3s-6.55,0.3-14.64,0.3
			C381.08,454.78,374.52,454.65,374.52,454.48z"/>
		<path style="fill:#263238;" d="M385.89,452.73c-0.15,0.08-0.49-0.26-0.84-0.71c-0.35-0.45-0.58-0.86-0.47-1
			c0.11-0.14,0.57,0.13,0.95,0.62C385.91,452.13,386,452.65,385.89,452.73z"/>
		<path style="fill:#263238;" d="M384.77,453.35c-0.16,0.06-0.47-0.37-0.79-0.91c-0.32-0.54-0.54-1-0.41-1.13s0.58,0.24,0.92,0.83
			C384.83,452.73,384.92,453.29,384.77,453.35z"/>
		<path style="fill:#263238;" d="M398.53,454.42c-0.06-0.05,0.08-0.38,0.38-0.87c0.402-0.659,0.924-1.235,1.54-1.7
			c0.639-0.488,1.426-0.742,2.23-0.72c0.62,0,0.94,0.27,0.91,0.34s-0.38,0-0.9,0.08c-0.686,0.096-1.336,0.364-1.89,0.78
			c-0.565,0.44-1.084,0.936-1.55,1.48C398.86,454.22,398.6,454.47,398.53,454.42z"/>
		<path style="fill:#263238;" d="M385.83,451c0.09-0.14,0.48-0.07,0.92,0.08c0.44,0.15,0.8,0.35,0.77,0.51s-0.47,0.23-1,0.06
			C385.99,451.48,385.75,451.11,385.83,451z"/>
		<path style="fill:#263238;" d="M386.11,450.06c0-0.16,0.48-0.29,1.05-0.28c0.57,0.01,1,0.15,1,0.31s-0.46,0.3-1.05,0.29
			C386.52,450.37,386.09,450.23,386.11,450.06z"/>
		<path style="fill:#455A64;" d="M370.53,288.4l-9.6,1.61l5.53,6.8c1.59,32,1.2,63.05,2.67,78.52c0.22,2.35,10.14,76,9.15,74.31
			l29.21,1.22l-8.72-74l4.13-65.73c4.48-7.766,5.791-16.961,3.66-25.67l-0.72-2.95"/>
		<path style="fill:#263238;" d="M390.66,172.74c-1.477-0.568-2.593-1.81-3-3.34c-0.367-1.547,0.144-3.171,1.33-4.23
			c1.226-1.023,2.955-1.186,4.35-0.41c1.044,0.721,1.807,1.781,2.16,3c0.328,0.787,0.419,1.652,0.26,2.49
			c-0.406,1.227-1.428,2.15-2.69,2.43c-1.245,0.249-2.524,0.282-3.78,0.1"/>
		<path style="fill:#263238;" d="M416.43,190.56c0.114-0.427,0.135-0.874,0.06-1.31c-0.114-0.495-0.351-0.952-0.69-1.33
			c-0.469-0.487-1.065-0.833-1.72-1c-0.808-0.197-1.643-0.254-2.47-0.17c-0.91,0.06-1.88,0.22-2.94,0.24
			c-1.136,0.07-2.267-0.198-3.25-0.77c-0.984-0.738-1.675-1.801-1.95-3c-0.658-2.114-1.748-4.069-3.2-5.74
			c-1.188-1.365-2.586-2.533-4.14-3.46c-1.468-0.803-3.017-1.45-4.62-1.93c0,0,0.12,0,0.35,0c0.23,0,0.57,0.08,1,0.2
			c1.211,0.31,2.377,0.774,3.47,1.38c1.622,0.905,3.082,2.075,4.32,3.46c1.519,1.698,2.661,3.698,3.35,5.87
			c0.235,1.087,0.844,2.056,1.72,2.74c0.908,0.528,1.951,0.778,3,0.72c1,0,2-0.15,2.92-0.19c0.875-0.068,1.754,0.016,2.6,0.25
			c0.714,0.198,1.354,0.601,1.84,1.16c0.359,0.429,0.594,0.947,0.68,1.5c0.047,0.336,0.016,0.678-0.09,1
			C416.53,190.47,416.44,190.57,416.43,190.56z"/>
		<path style="fill:#E0E0E0;" d="M398,196.31c0-0.05,0.48,0.33,0.48,1.19c-0.015,0.511-0.235,0.994-0.61,1.34
			c-0.462,0.438-1.101,0.637-1.73,0.54c-0.626-0.111-1.167-0.502-1.47-1.06c-0.244-0.447-0.294-0.975-0.14-1.46
			c0.27-0.82,0.82-1,0.83-1c0.01,0-0.34,0.37-0.46,1.07c-0.073,0.389-0.001,0.79,0.2,1.13c0.251,0.404,0.662,0.684,1.13,0.77
			c0.469,0.068,0.946-0.066,1.31-0.37c0.302-0.254,0.501-0.61,0.56-1C398.16,196.77,397.88,196.35,398,196.31z"/>
		<path style="fill:#FF725E;" d="M395.37,174c-2.142-2.133-4.872-3.577-7.84-4.15C390.699,169.725,393.692,171.309,395.37,174z"/>
		<path style="fill:#E0E0E0;" d="M399.1,195.08c0-0.07,0.29-0.09,0.47,0.24c0.091,0.2,0.091,0.43,0,0.63
			c-0.134,0.253-0.394,0.413-0.68,0.42c-0.446,0.031-0.833-0.305-0.865-0.752c-0.004-0.053-0.002-0.106,0.005-0.158
			c0-0.34,0.24-0.45,0.29-0.41c0.05,0.04,0,0.2,0.09,0.4c0.031,0.227,0.231,0.393,0.46,0.38c0.176,0.009,0.327-0.127,0.335-0.304
			c0.001-0.025-0.001-0.051-0.005-0.076C399.2,195.26,399.08,195.16,399.1,195.08z"/>
		<path style="fill:#455A64;" d="M392.26,215c0.102,0.35,0.139,0.716,0.11,1.08c-0.019,0.997-0.215,1.982-0.58,2.91
			c-0.547,1.39-1.434,2.621-2.58,3.58c-2.943,2.363-7.058,2.608-10.26,0.61c-1.257-0.81-2.289-1.924-3-3.24
			c-0.474-0.878-0.789-1.832-0.93-2.82c-0.067-0.357-0.067-0.723,0-1.08c0.209,1.303,0.639,2.561,1.27,3.72
			c0.724,1.216,1.724,2.243,2.92,3c3.041,1.828,6.893,1.594,9.69-0.59c1.102-0.894,1.973-2.039,2.54-3.34
			C391.925,217.608,392.202,216.313,392.26,215z"/>
		<path style="fill:#263238;" d="M390.16,444.17c-0.032-0.087-0.053-0.178-0.06-0.27c0-0.21-0.07-0.47-0.11-0.8
			c-0.1-0.74-0.24-1.77-0.41-3.07c-0.34-2.67-0.79-6.53-1.32-11.32c-1.07-9.56-2.38-22.78-3.56-37.41
			c-1.18-14.63-2-27.91-2.46-37.52c-0.25-4.8-0.41-8.69-0.5-11.38c-0.04-1.333-0.07-2.363-0.09-3.09c0-0.33,0-0.6,0-0.81
			c-0.011-0.09-0.011-0.18,0-0.27c0.011,0.09,0.011,0.18,0,0.27c0,0.21,0,0.48,0.06,0.8c0.05,0.75,0.11,1.78,0.2,3.09
			c0.16,2.73,0.38,6.6,0.66,11.37c0.58,9.6,1.46,22.86,2.63,37.49c1.17,14.63,2.43,27.86,3.39,37.42c0.49,4.76,0.88,8.62,1.16,11.34
			c0.13,1.3,0.23,2.33,0.3,3.08c0,0.33,0.05,0.59,0.07,0.8C390.147,443.981,390.16,444.075,390.16,444.17z"/>
		<path style="fill:#263238;" d="M406.48,444.24c-0.365,0.101-0.741,0.154-1.12,0.16c-0.72,0.06-1.77,0.13-3.06,0.19
			c-2.59,0.13-6.17,0.19-10.12,0.13c-3.95-0.06-7.53-0.18-10.11-0.28l-3.06-0.15c-0.38,0.01-0.76-0.03-1.13-0.12
			c0.371-0.079,0.751-0.11,1.13-0.09c0.72,0,1.77,0,3.07,0c2.58,0,6.16,0.06,10.11,0.12c3.95,0.06,7.51,0.06,10.1,0h3.06
			C405.727,444.166,406.106,444.18,406.48,444.24z"/>
		<path style="fill:#455A64;" d="M401.24,215.93c0,0.13-1.69,0.59-4.3,0.77l0.19-0.36l1.93,3.13l1.22,2l0.29,0.49l-0.56-0.11
			c-1.848-0.273-3.712-0.43-5.58-0.47c0.513-0.169,1.05-0.253,1.59-0.25c1.364-0.087,2.733-0.013,4.08,0.22l-0.26,0.38l-1.24-2
			l-1.87-3.16l-0.21-0.35h0.4c1.28-0.06,2.37-0.14,3.12-0.21C400.436,215.943,400.838,215.916,401.24,215.93z"/>
		<path style="fill:#455A64;" d="M410.42,223.86c0,0.09-1.45-0.26-3.94-0.32l0.17-0.19c0.59,2.34,1.37,5.46,2.28,9.06l0.1,0.42
			l-0.41-0.11l-6.36-1.72l-1.73-0.48l0.34-0.27c0.14,3.45,0.27,6.65,0.38,9.4v0.3l-0.28-0.08l-6.11-1.71l-1.69-0.5
			c-0.203-0.051-0.398-0.128-0.58-0.23c0.21,0.003,0.419,0.037,0.62,0.1l1.72,0.39l6.13,1.52l-0.27,0.23
			c-0.14-2.75-0.3-5.95-0.47-9.39v-0.37l0.36,0.1l1.73,0.48l6.34,1.77l-0.31,0.31c-0.84-3.63-1.56-6.77-2.11-9.13l-0.05-0.2h0.22
			c0.978,0.051,1.951,0.175,2.91,0.37C409.755,223.657,410.093,223.741,410.42,223.86z"/>
		<path style="fill:#455A64;" d="M411.68,249.22c-0.282-0.206-0.526-0.46-0.72-0.75c-0.42-0.53-0.88-1.41-1.54-2.43h0.27
			c-1.619,3.161-3.513,6.172-5.66,9l-0.2,0.27l-0.21-0.27c-1-1.25-2-2.58-3-4l-2.3-3h0.38l-3.7,3.26l-1.66,1.43l-0.77,0.67
			l-0.37,0.32l-0.09,0.08l0,0h-0.05H392c0,0.09-0.33-0.12-0.26-0.21c0.07-0.09,0,0,0,0v-0.06l0,0c0,0,0.07,0.17,0.1,0.16
			c0.03-0.01,0,0,0,0l-0.17,0.05l-0.06-0.19c-0.59-2-1-3.58-1.25-4.72c-0.171-0.58-0.239-1.186-0.2-1.79c0,0,0.1,0.63,0.41,1.74
			s0.78,2.7,1.43,4.65l-0.23-0.14c0.072-0.019,0.148-0.019,0.22,0c0.103,0.035,0.171,0.132,0.17,0.24
			c0.007,0.046,0.007,0.094,0,0.14c0,0,0,0-0.05,0l-0.14-0.06c-0.013-0.037-0.033-0.071-0.06-0.1l-0.06-0.06l0,0h0.05l0.08-0.08
			l0.37-0.33l0.76-0.68c0.52-0.47,1.06-1,1.63-1.46l3.65-3.25l0.21-0.19l0.18,0.23l2.3,3c1.06,1.38,2.08,2.72,3,4h-0.41
			c2.148-2.798,4.083-5.753,5.79-8.84l0.14-0.24l0.14,0.23c0.64,1.07,1,2,1.41,2.51C411.56,248.86,411.71,249.19,411.68,249.22z"/>
		<path style="fill:#455A64;" d="M394,235c-0.007,0.34-0.065,0.677-0.17,1c-0.15,0.62-0.38,1.5-0.7,2.59
			c-0.63,2.17-1.61,5.15-2.87,8.36c-1.26,3.21-2.58,6.06-3.6,8.08c-0.51,1-0.94,1.82-1.26,2.37c-0.137,0.3-0.315,0.579-0.53,0.83
			c0.416-1.148,0.901-2.27,1.45-3.36c0.93-2.06,2.18-4.91,3.44-8.11c1.26-3.2,2.29-6.15,3-8.29
			C393.1,237.289,393.515,236.13,394,235z"/>
		<path style="fill:#455A64;" d="M401.24,215.93c0,0.13-1.69,0.59-4.3,0.77l0.19-0.36l1.93,3.13l1.22,2l0.29,0.49l-0.56-0.11
			c-1.848-0.273-3.712-0.43-5.58-0.47c0.513-0.169,1.05-0.253,1.59-0.25c1.364-0.087,2.733-0.013,4.08,0.22l-0.26,0.38l-1.24-2
			l-1.87-3.16l-0.21-0.35h0.4c1.28-0.06,2.37-0.14,3.12-0.21C400.436,215.943,400.838,215.916,401.24,215.93z"/>
		<path style="fill:#455A64;" d="M394,235c-0.007,0.34-0.065,0.677-0.17,1c-0.15,0.62-0.38,1.5-0.7,2.59
			c-0.63,2.17-1.61,5.15-2.87,8.36c-1.26,3.21-2.58,6.06-3.6,8.08c-0.51,1-0.94,1.82-1.26,2.37c-0.137,0.3-0.315,0.579-0.53,0.83
			c0.416-1.148,0.901-2.27,1.45-3.36c0.93-2.06,2.18-4.91,3.44-8.11c1.26-3.2,2.29-6.15,3-8.29
			C393.1,237.289,393.515,236.13,394,235z"/>
	</g>
	<g>
		<path style="fill:#FF725E;" d="M278.118,302.032l23.245-79.751c1.199-4.115,5.507-6.478,9.621-5.279l130.653,38.082
			c4.115,1.199,6.478,5.507,5.279,9.621l-23.245,79.751c-1.199,4.115-5.507,6.478-9.621,5.279l-130.653-38.082
			C279.282,310.454,276.919,306.146,278.118,302.032z"/>
		<g style="opacity:0.3;">
			<path d="M278.118,302.032l23.245-79.751c1.199-4.115,5.507-6.478,9.621-5.279l130.653,38.082
				c4.115,1.199,6.478,5.507,5.279,9.621l-23.245,79.751c-1.199,4.115-5.507,6.478-9.621,5.279l-130.653-38.082
				C279.282,310.454,276.919,306.146,278.118,302.032z"/>
		</g>
		<path style="fill:#FFFFFF;" d="M296.778,279.1l-2.36,8.08l-0.83-0.24l2.14-7.34l-1.91-0.56l0.22-0.74L296.778,279.1z"/>
		<path style="fill:#FFFFFF;" d="M305,288.86l-0.22,0.74l-5.71-1.6l0.17-0.59l4.32-2.31c1.18-0.63,1.51-1.13,1.67-1.68
			c0.27-0.94-0.22-1.7-1.45-2.06c-0.819-0.295-1.727-0.203-2.47,0.25l-0.44-0.68c0.967-0.574,2.138-0.691,3.2-0.32
			c1.64,0.48,2.43,1.62,2,3c-0.22,0.77-0.67,1.39-2.06,2.14l-3.54,1.9L305,288.86z"/>
		<path style="fill:#FFFFFF;" d="M313.87,290l-1.62-0.47l-0.62,2.12l-0.83-0.24l0.62-2.13l-4.56-1.33l0.17-0.6l5.85-4.1l0.92,0.27
			l-5.65,4l3.51,1l0.54-1.87l0.81,0.24l-0.54,1.87l1.61,0.47L313.87,290z"/>
		<path style="fill:#FFFFFF;" d="M326.25,293.57l-1.62-0.48l-0.62,2.13l-0.83-0.24l0.62-2.13l-4.56-1.33l0.18-0.6l5.84-4.11
			l0.92,0.27l-5.65,4l3.51,1l0.54-1.87l0.81,0.23l-0.54,1.88l1.61,0.47L326.25,293.57z"/>
		<path style="fill:#FFFFFF;" d="M333.39,295.37c-0.41,1.37-1.68,2.17-3.65,1.59c-1.075-0.271-2.006-0.943-2.6-1.88l0.6-0.54
			c0.505,0.83,1.317,1.427,2.26,1.66c1.37,0.4,2.3-0.06,2.58-1s-0.15-1.88-2.21-2.47l-1.72-0.51l1.6-3.93l4.42,1.29l-0.21,0.74
			l-3.7-1.08l-1,2.5l1,0.3C333.16,292.71,333.8,293.94,333.39,295.37z"/>
		<path style="fill:#FFFFFF;" d="M341.38,297.66c-0.416,1.386-1.877,2.172-3.263,1.756c-0.073-0.022-0.146-0.047-0.217-0.076
			c-2.15-0.62-2.88-2.45-2.14-5c0.8-2.74,2.72-3.74,4.91-3.1c0.677,0.163,1.296,0.509,1.79,1l-0.53,0.57
			c-0.394-0.417-0.901-0.71-1.46-0.84c-1.74-0.51-3.19,0.29-3.82,2.48c-0.065,0.22-0.118,0.444-0.16,0.67
			c0.74-0.772,1.865-1.034,2.87-0.67c1.388,0.239,2.319,1.558,2.08,2.946C341.425,297.485,341.405,297.573,341.38,297.66z
			 M340.55,297.45c0.285-0.975-0.274-1.997-1.249-2.283c-0.089-0.026-0.179-0.045-0.271-0.058c-0.922-0.454-2.036-0.075-2.49,0.847
			c-0.454,0.922-0.075,2.036,0.846,2.491c0.202,0.099,0.42,0.161,0.644,0.183c0.928,0.414,2.016-0.003,2.43-0.931
			C340.496,297.618,340.526,297.535,340.55,297.45L340.55,297.45z"/>
		<path style="fill:#FFFFFF;" d="M352.41,301c-0.39,1.35-1.68,2.1-3.63,1.53c-1.076-0.275-2.009-0.946-2.61-1.88l0.6-0.55
			c0.496,0.827,1.297,1.427,2.23,1.67c1.34,0.39,2.26,0,2.56-1s-0.22-1.81-1.72-2.24l-0.58-0.17l0.18-0.61l3.06-2.16l-4.13-1.2
			l0.21-0.74l5.2,1.51l-0.17,0.59l-3.13,2.21C352.19,298.52,352.79,299.68,352.41,301z"/>
		<path style="fill:#FFFFFF;" d="M360.54,303.25c-0.427,1.389-1.898,2.168-3.286,1.742c-0.069-0.021-0.137-0.045-0.204-0.072
			c-2.14-0.62-2.87-2.45-2.13-5c0.8-2.75,2.72-3.74,4.91-3.11c0.674,0.17,1.292,0.515,1.79,1l-0.53,0.57
			c-0.399-0.41-0.905-0.701-1.46-0.84c-1.74-0.5-3.19,0.29-3.83,2.48c-0.061,0.221-0.111,0.444-0.15,0.67
			c0.738-0.775,1.867-1.035,2.87-0.66c1.388,0.238,2.321,1.556,2.083,2.944C360.587,303.067,360.566,303.159,360.54,303.25z
			 M359.71,303.03c0.276-0.989-0.302-2.015-1.292-2.292c-0.075-0.021-0.151-0.037-0.228-0.048c-0.922-0.454-2.036-0.075-2.49,0.847
			c-0.454,0.922-0.075,2.037,0.846,2.491c0.202,0.099,0.42,0.161,0.644,0.183c0.93,0.41,2.016-0.012,2.426-0.942
			c0.038-0.087,0.07-0.177,0.094-0.268V303.03z"/>
		<path style="fill:#FFFFFF;" d="M369.62,299.74l-0.17,0.59l-5.56,6.51l-0.9-0.26l5.46-6.38l-4.16-1.2l-0.44,1.51l-0.82-0.24
			l0.66-2.25L369.62,299.74z"/>
		<path style="fill:#FFFFFF;" d="M381.17,303.11L381,303.7l-5.56,6.5l-0.9-0.26l5.46-6.37l-4.16-1.21l-0.44,1.51l-0.82-0.24
			l0.66-2.25L381.17,303.11z"/>
		<path style="fill:#FFFFFF;" d="M387.43,311.26c-0.42,1.43-1.89,2-3.82,1.4c-1.93-0.6-2.86-1.8-2.44-3.23
			c0.263-0.951,1.155-1.589,2.14-1.53c-0.705-0.467-1.012-1.346-0.75-2.15c0.38-1.31,1.74-1.81,3.45-1.31c1.71,0.5,2.61,1.65,2.22,3
			c-0.223,0.818-0.962,1.39-1.81,1.4C387.275,309.317,387.692,310.317,387.43,311.26z M386.58,311c0.29-1-0.39-1.87-1.82-2.29
			c-1.43-0.42-2.46,0-2.75,1c-0.29,1,0.37,1.87,1.81,2.29S386.28,312,386.58,311z M385,308.05c1.26,0.37,2.18,0,2.43-0.85
			c0.25-0.85-0.37-1.7-1.58-2.05s-2.16,0-2.42,0.87C383.17,306.89,383.69,307.69,385,308.05z"/>
		<path style="fill:#FFFFFF;" d="M395.82,311.68c-0.8,2.75-2.72,3.75-4.92,3.11c-0.673-0.166-1.288-0.511-1.78-1l0.53-0.57
			c0.391,0.415,0.895,0.707,1.45,0.84c1.75,0.51,3.19-0.29,3.83-2.48c0.065-0.22,0.118-0.444,0.16-0.67
			c-0.738,0.775-1.867,1.035-2.87,0.66c-1.382-0.243-2.305-1.559-2.063-2.941c0.016-0.091,0.037-0.181,0.063-0.269
			c0.409-1.382,1.861-2.171,3.243-1.763c0.08,0.024,0.159,0.051,0.237,0.083C395.83,307.3,396.56,309.13,395.82,311.68z
			 M395.14,309.75c0.214-1.084-0.491-2.136-1.574-2.35c-0.019-0.004-0.037-0.007-0.056-0.01c-0.943-0.38-2.015,0.077-2.394,1.019
			c-0.38,0.943,0.077,2.015,1.019,2.394c0.121,0.049,0.247,0.085,0.375,0.107c1.023,0.416,2.19-0.076,2.606-1.099
			C395.124,309.791,395.132,309.771,395.14,309.75z"/>
		<path style="fill:#FFFFFF;" d="M405.17,310.1l-2.36,8.08l-0.83-0.24l2.14-7.34l-1.91-0.56l0.22-0.74L405.17,310.1z"/>
		<path style="fill:#FFFFFF;" d="M409.689,319.86l-0.22,0.74l-5.67-1.6l0.17-0.59l4.32-2.31c1.18-0.63,1.51-1.13,1.67-1.68
			c0.27-0.93-0.22-1.7-1.45-2.06c-0.819-0.295-1.727-0.203-2.47,0.25l-0.44-0.68c0.969-0.57,2.14-0.684,3.2-0.31
			c1.64,0.47,2.43,1.61,2,3c-0.23,0.77-0.67,1.39-2.06,2.14l-3.54,1.9L409.689,319.86z"/>
		<path style="fill:#FFFFFF;" d="M417.038,320.4c-0.4,1.35-1.68,2.1-3.63,1.53c-1.079-0.274-2.013-0.951-2.61-1.89l0.6-0.54
			c0.496,0.827,1.297,1.427,2.23,1.67c1.34,0.39,2.26,0,2.55-1c0.29-1-0.21-1.81-1.71-2.24l-0.58-0.17l0.18-0.62l3.05-2.15
			l-4.13-1.2l0.22-0.74l5.19,1.51l-0.17,0.59l-3.12,2.21C416.808,317.94,417.408,319.1,417.038,320.4z"/>
		
			<rect x="384.571" y="288.113" transform="matrix(0.2797 -0.9601 0.9601 0.2797 -30.6429 602.7934)" style="fill:#FFFFFF;" width="3.65" height="67.41"/>
		
			<rect x="398.286" y="316.116" transform="matrix(0.2797 -0.9601 0.9601 0.2797 -31.8857 624.3131)" style="fill:#FFFFFF;" width="3.66" height="34.58"/>
		<path style="fill:#263238;" d="M304.52,251.853l17.636,5.141c2.63,0.766,4.14,3.52,3.374,6.15l-3.137,10.762
			c-0.767,2.63-3.52,4.14-6.15,3.374l-17.636-5.14c-2.63-0.767-4.14-3.52-3.374-6.15l3.137-10.762
			C299.137,252.597,301.89,251.086,304.52,251.853z"/>
		<path style="fill:#FFFFFF;" d="M295.498,265.12l0.38-1.3l14,4.08c1.618,0.472,3.313-0.457,3.785-2.075s-0.457-3.313-2.075-3.785
			l-14-4.07l0.38-1.3l14,4.07c2.304,0.789,3.533,3.296,2.745,5.6c-0.737,2.154-2.992,3.393-5.205,2.86L295.498,265.12z"/>
		
			<rect x="318.401" y="262.39" transform="matrix(0.2807 -0.9598 0.9598 0.2807 -27.1136 498.602)" style="fill:#FFFFFF;" width="1.36" height="10"/>
		
			<rect x="338.772" y="211.497" transform="matrix(0.2798 -0.96 0.96 0.2798 8.2511 506.7438)" style="fill:#FFFFFF;" width="6.24" height="72.75"/>
	</g>
	<g>
		<path style="fill:#E5BAAB;" d="M412.17,248.91L395,237.63c0,0-8.39,24.16-11,24.4c-14.24,1.3-29.48-3.43-34.82-5.29
			c-0.54-0.61-1.16-1.34-1.85-2.24c-0.588-0.772-1.041-1.637-1.34-2.56c-0.417-1.132-0.673-2.317-0.76-3.52
			c0.056-0.616-0.399-1.161-1.015-1.216c-0.337-0.031-0.67,0.093-0.905,0.336c-0.62,0.8-0.78,3.85,0.63,7.14
			c1.41,3.29-3.57,0.67-5.4-0.25c-1.83-0.92-7.63-3.5-8.36-3.16c-1.06,0.5-0.73,1.73,1.12,2.61c1.85,0.88,7.21,3.89,6.68,4.83
			c-0.53,0.94-9.78-3.88-9.78-3.88s-1.81-1.34-2.46-0.27c-1.18,1.93,9,6.31,10,6.7c0.68,0.28,0.14,1.32-0.58,1
			c-0.72-0.32-9.12-5-10.33-3.06c-0.93,1.5,8.37,3.69,9.57,5.62c1.2,1.93-6.89-2.37-7.72-0.91c-0.31,0.55-0.46,1,4.54,2.81
			c3.66,1.145,7.379,2.093,11.14,2.84v0.05c0,0,51.06,22.86,60.72,0.81C413.43,246.92,412.17,248.91,412.17,248.91z"/>
		<path style="fill:#FF725E;" d="M400.9,215.88c0,0,15.6,1.84,14,20.4c-1.044,11.474-4.269,22.644-9.5,32.91l-20.46-10.74
			c4.606-9.19,8.071-18.909,10.32-28.94l5.69-13.63H400.9z"/>
		<g style="opacity:0.2;">
			<path style="fill:#FFFFFF;" d="M400.9,215.88c0,0,15.6,1.84,14,20.4c-1.044,11.474-4.269,22.644-9.5,32.91l-20.46-10.74
				c4.606-9.19,8.071-18.909,10.32-28.94l5.69-13.63H400.9z"/>
		</g>
		<path style="fill:#455A64;" d="M410.42,223.86c0,0.09-1.45-0.26-3.94-0.32l0.17-0.19c0.59,2.34,1.37,5.46,2.28,9.06l0.1,0.42
			l-0.41-0.11l-6.36-1.72l-1.73-0.48l0.34-0.27c0.14,3.45,0.27,6.65,0.38,9.4v0.3l-0.28-0.08l-6.11-1.71l-1.69-0.5
			c-0.203-0.051-0.398-0.128-0.58-0.23c0.21,0.003,0.419,0.037,0.62,0.1l1.72,0.39l6.13,1.52l-0.27,0.23
			c-0.14-2.75-0.3-5.95-0.47-9.39v-0.37l0.36,0.1l1.73,0.48l6.34,1.77l-0.31,0.31c-0.84-3.63-1.56-6.77-2.11-9.13l-0.05-0.2h0.22
			c0.978,0.051,1.951,0.175,2.91,0.37C409.755,223.657,410.093,223.741,410.42,223.86z"/>
		<path style="fill:#455A64;" d="M411.68,249.22c-0.282-0.206-0.526-0.46-0.72-0.75c-0.42-0.53-0.88-1.41-1.54-2.43h0.27
			c-1.619,3.161-3.513,6.172-5.66,9l-0.2,0.27l-0.21-0.27c-1-1.25-2-2.58-3-4l-2.3-3h0.38l-3.7,3.26l-1.66,1.43l-0.77,0.67
			l-0.37,0.32l-0.09,0.08l0,0h-0.05H392c0,0.09-0.33-0.12-0.26-0.21c0.07-0.09,0,0,0,0v-0.06l0,0c0,0,0.07,0.17,0.1,0.16
			c0.03-0.01,0,0,0,0l-0.17,0.05l-0.06-0.19c-0.59-2-1-3.58-1.25-4.72c-0.171-0.58-0.239-1.186-0.2-1.79c0,0,0.1,0.63,0.41,1.74
			s0.78,2.7,1.43,4.65l-0.23-0.14c0.072-0.019,0.148-0.019,0.22,0c0.103,0.035,0.171,0.132,0.17,0.24
			c0.007,0.046,0.007,0.094,0,0.14c0,0,0,0-0.05,0l-0.14-0.06c-0.013-0.037-0.033-0.071-0.06-0.1l-0.06-0.06l0,0h0.05l0.08-0.08
			l0.37-0.33l0.76-0.68c0.52-0.47,1.06-1,1.63-1.46l3.65-3.25l0.21-0.19l0.18,0.23l2.3,3c1.06,1.38,2.08,2.72,3,4h-0.41
			c2.148-2.798,4.083-5.753,5.79-8.84l0.14-0.24l0.14,0.23c0.64,1.07,1,2,1.41,2.51C411.56,248.86,411.71,249.19,411.68,249.22z"/>
	</g>
</g>
</svg>
